<mxfile host="Electron" modified="2024-04-26T17:06:53.925Z" agent="Mozilla/5.0 (X11; Linux x86_64) AppleWebKit/537.36 (KHTML, like Gecko) draw.io/21.6.5 Chrome/114.0.5735.243 Electron/25.3.1 Safari/537.36" etag="piuaVtZ0VKU64xRv9DCI" version="21.6.5" type="device">
  <diagram name="Page-1" id="ECIJvWzlY84aXGxSbPBC">
    <mxGraphModel dx="2269" dy="1577" grid="1" gridSize="10" guides="1" tooltips="1" connect="1" arrows="1" fold="1" page="0" pageScale="1" pageWidth="827" pageHeight="1169" math="0" shadow="0">
      <root>
        <mxCell id="0" />
        <mxCell id="1" parent="0" />
        <mxCell id="KCs7AsWhaccvv9OLQSEz-1" value="" style="rounded=0;whiteSpace=wrap;html=1;fillColor=#cdeb8b;strokeColor=#36393d;" parent="1" vertex="1">
          <mxGeometry x="20" y="180" width="480" height="80" as="geometry" />
        </mxCell>
        <mxCell id="KCs7AsWhaccvv9OLQSEz-12" style="edgeStyle=orthogonalEdgeStyle;rounded=0;orthogonalLoop=1;jettySize=auto;html=1;entryX=0.5;entryY=0;entryDx=0;entryDy=0;" parent="1" source="KCs7AsWhaccvv9OLQSEz-2" target="KCs7AsWhaccvv9OLQSEz-8" edge="1">
          <mxGeometry relative="1" as="geometry" />
        </mxCell>
        <mxCell id="KCs7AsWhaccvv9OLQSEz-2" value="C" style="rounded=0;whiteSpace=wrap;html=1;fontStyle=1;fontSize=20;" parent="1" vertex="1">
          <mxGeometry x="120" y="200" width="40" height="40" as="geometry" />
        </mxCell>
        <mxCell id="lyLFaOXSDWbJTSV2NZWl-9" style="edgeStyle=orthogonalEdgeStyle;rounded=0;orthogonalLoop=1;jettySize=auto;html=1;entryX=0.5;entryY=0;entryDx=0;entryDy=0;" edge="1" parent="1" source="KCs7AsWhaccvv9OLQSEz-3" target="lyLFaOXSDWbJTSV2NZWl-7">
          <mxGeometry relative="1" as="geometry" />
        </mxCell>
        <mxCell id="KCs7AsWhaccvv9OLQSEz-3" value="K" style="rounded=0;whiteSpace=wrap;html=1;fontStyle=1;fontSize=20;" parent="1" vertex="1">
          <mxGeometry x="280" y="200" width="40" height="40" as="geometry" />
        </mxCell>
        <mxCell id="KCs7AsWhaccvv9OLQSEz-32" style="edgeStyle=orthogonalEdgeStyle;rounded=0;orthogonalLoop=1;jettySize=auto;html=1;entryX=0.5;entryY=1;entryDx=0;entryDy=0;" parent="1" source="KCs7AsWhaccvv9OLQSEz-4" target="KCs7AsWhaccvv9OLQSEz-27" edge="1">
          <mxGeometry relative="1" as="geometry" />
        </mxCell>
        <mxCell id="KCs7AsWhaccvv9OLQSEz-4" value="E" style="rounded=0;whiteSpace=wrap;html=1;fontStyle=1;fontSize=20;" parent="1" vertex="1">
          <mxGeometry x="200" y="200" width="40" height="40" as="geometry" />
        </mxCell>
        <mxCell id="lyLFaOXSDWbJTSV2NZWl-17" style="edgeStyle=orthogonalEdgeStyle;rounded=0;orthogonalLoop=1;jettySize=auto;html=1;entryX=0;entryY=0.5;entryDx=0;entryDy=0;" edge="1" parent="1" source="KCs7AsWhaccvv9OLQSEz-6" target="lyLFaOXSDWbJTSV2NZWl-16">
          <mxGeometry relative="1" as="geometry">
            <Array as="points">
              <mxPoint x="380" y="340" />
            </Array>
          </mxGeometry>
        </mxCell>
        <mxCell id="KCs7AsWhaccvv9OLQSEz-6" value="F" style="rounded=0;whiteSpace=wrap;html=1;fontStyle=1;fontSize=20;" parent="1" vertex="1">
          <mxGeometry x="360" y="200" width="40" height="40" as="geometry" />
        </mxCell>
        <mxCell id="KCs7AsWhaccvv9OLQSEz-18" style="edgeStyle=orthogonalEdgeStyle;rounded=0;orthogonalLoop=1;jettySize=auto;html=1;entryX=0;entryY=0.5;entryDx=0;entryDy=0;" parent="1" source="KCs7AsWhaccvv9OLQSEz-7" target="KCs7AsWhaccvv9OLQSEz-13" edge="1">
          <mxGeometry relative="1" as="geometry" />
        </mxCell>
        <mxCell id="KCs7AsWhaccvv9OLQSEz-7" value="s" style="rounded=0;whiteSpace=wrap;html=1;fontStyle=1;fontSize=20;" parent="1" vertex="1">
          <mxGeometry x="440" y="200" width="40" height="40" as="geometry" />
        </mxCell>
        <mxCell id="KCs7AsWhaccvv9OLQSEz-8" value="Bc" style="rounded=0;whiteSpace=wrap;html=1;fontStyle=1;fontSize=20;fillColor=#ffe6cc;strokeColor=#d79b00;" parent="1" vertex="1">
          <mxGeometry x="120" y="360" width="40" height="40" as="geometry" />
        </mxCell>
        <mxCell id="KCs7AsWhaccvv9OLQSEz-9" value="Bc" style="rounded=0;whiteSpace=wrap;html=1;fontStyle=1;fontSize=20;fillColor=#ffe6cc;strokeColor=#d79b00;" parent="1" vertex="1">
          <mxGeometry x="160" y="360" width="40" height="40" as="geometry" />
        </mxCell>
        <mxCell id="KCs7AsWhaccvv9OLQSEz-10" value="Bc" style="rounded=0;whiteSpace=wrap;html=1;fontStyle=1;fontSize=20;fillColor=#ffe6cc;strokeColor=#d79b00;" parent="1" vertex="1">
          <mxGeometry x="80" y="360" width="40" height="40" as="geometry" />
        </mxCell>
        <mxCell id="KCs7AsWhaccvv9OLQSEz-11" value="Bc" style="rounded=0;whiteSpace=wrap;html=1;fontStyle=1;fontSize=20;fillColor=#ffe6cc;strokeColor=#d79b00;" parent="1" vertex="1">
          <mxGeometry x="200" y="360" width="40" height="40" as="geometry" />
        </mxCell>
        <mxCell id="KCs7AsWhaccvv9OLQSEz-17" style="edgeStyle=orthogonalEdgeStyle;rounded=0;orthogonalLoop=1;jettySize=auto;html=1;entryX=1;entryY=0.5;entryDx=0;entryDy=0;" parent="1" source="KCs7AsWhaccvv9OLQSEz-13" target="KCs7AsWhaccvv9OLQSEz-16" edge="1">
          <mxGeometry relative="1" as="geometry">
            <Array as="points">
              <mxPoint x="720" y="220" />
              <mxPoint x="720" y="100" />
            </Array>
          </mxGeometry>
        </mxCell>
        <mxCell id="KCs7AsWhaccvv9OLQSEz-13" value="SP" style="rounded=0;whiteSpace=wrap;html=1;fontStyle=1;fontSize=20;" parent="1" vertex="1">
          <mxGeometry x="640" y="200" width="40" height="40" as="geometry" />
        </mxCell>
        <mxCell id="KCs7AsWhaccvv9OLQSEz-20" style="edgeStyle=orthogonalEdgeStyle;rounded=0;orthogonalLoop=1;jettySize=auto;html=1;entryX=0;entryY=0.5;entryDx=0;entryDy=0;" parent="1" source="KCs7AsWhaccvv9OLQSEz-14" target="KCs7AsWhaccvv9OLQSEz-19" edge="1">
          <mxGeometry relative="1" as="geometry">
            <Array as="points">
              <mxPoint x="600" y="180" />
              <mxPoint x="600" y="60" />
            </Array>
          </mxGeometry>
        </mxCell>
        <mxCell id="KCs7AsWhaccvv9OLQSEz-14" value="Cp" style="rounded=0;whiteSpace=wrap;html=1;fontStyle=1;fontSize=20;" parent="1" vertex="1">
          <mxGeometry x="640" y="160" width="40" height="40" as="geometry" />
        </mxCell>
        <mxCell id="KCs7AsWhaccvv9OLQSEz-15" value="V" style="rounded=0;whiteSpace=wrap;html=1;fontStyle=1;fontSize=20;fillColor=#d5e8d4;strokeColor=#82b366;" parent="1" vertex="1">
          <mxGeometry x="640" y="120" width="40" height="40" as="geometry" />
        </mxCell>
        <mxCell id="KCs7AsWhaccvv9OLQSEz-16" value="V" style="rounded=0;whiteSpace=wrap;html=1;fontStyle=1;fontSize=20;fillColor=#d5e8d4;strokeColor=#82b366;" parent="1" vertex="1">
          <mxGeometry x="640" y="80" width="40" height="40" as="geometry" />
        </mxCell>
        <mxCell id="KCs7AsWhaccvv9OLQSEz-19" value="" style="rounded=0;whiteSpace=wrap;html=1;fontStyle=1;fontSize=20;fillColor=#d5e8d4;strokeColor=#82b366;" parent="1" vertex="1">
          <mxGeometry x="640" y="40" width="40" height="40" as="geometry" />
        </mxCell>
        <mxCell id="KCs7AsWhaccvv9OLQSEz-22" style="edgeStyle=orthogonalEdgeStyle;rounded=0;orthogonalLoop=1;jettySize=auto;html=1;entryX=0;entryY=0.5;entryDx=0;entryDy=0;" parent="1" source="KCs7AsWhaccvv9OLQSEz-21" target="KCs7AsWhaccvv9OLQSEz-10" edge="1">
          <mxGeometry relative="1" as="geometry" />
        </mxCell>
        <mxCell id="KCs7AsWhaccvv9OLQSEz-21" value="B" style="rounded=0;whiteSpace=wrap;html=1;fontStyle=1;fontSize=20;" parent="1" vertex="1">
          <mxGeometry x="40" y="200" width="40" height="40" as="geometry" />
        </mxCell>
        <mxCell id="KCs7AsWhaccvv9OLQSEz-24" value="next" style="rounded=0;whiteSpace=wrap;html=1;fontStyle=1;fontSize=20;" parent="1" vertex="1">
          <mxGeometry x="180" width="80" height="40" as="geometry" />
        </mxCell>
        <mxCell id="KCs7AsWhaccvv9OLQSEz-26" value="count" style="rounded=0;whiteSpace=wrap;html=1;fontStyle=1;fontSize=20;" parent="1" vertex="1">
          <mxGeometry x="180" y="40" width="80" height="40" as="geometry" />
        </mxCell>
        <mxCell id="KCs7AsWhaccvv9OLQSEz-31" style="edgeStyle=orthogonalEdgeStyle;rounded=0;orthogonalLoop=1;jettySize=auto;html=1;entryX=0;entryY=0.5;entryDx=0;entryDy=0;" parent="1" source="KCs7AsWhaccvv9OLQSEz-27" target="KCs7AsWhaccvv9OLQSEz-28" edge="1">
          <mxGeometry relative="1" as="geometry" />
        </mxCell>
        <mxCell id="KCs7AsWhaccvv9OLQSEz-27" value="values" style="rounded=0;whiteSpace=wrap;html=1;fontStyle=1;fontSize=20;" parent="1" vertex="1">
          <mxGeometry x="180" y="80" width="80" height="40" as="geometry" />
        </mxCell>
        <mxCell id="KCs7AsWhaccvv9OLQSEz-28" value="V" style="rounded=0;whiteSpace=wrap;html=1;fontStyle=1;fontSize=20;fillColor=#d5e8d4;strokeColor=#82b366;" parent="1" vertex="1">
          <mxGeometry x="340" y="80" width="40" height="40" as="geometry" />
        </mxCell>
        <mxCell id="KCs7AsWhaccvv9OLQSEz-29" value="V" style="rounded=0;whiteSpace=wrap;html=1;fontStyle=1;fontSize=20;fillColor=#d5e8d4;strokeColor=#82b366;" parent="1" vertex="1">
          <mxGeometry x="380" y="80" width="40" height="40" as="geometry" />
        </mxCell>
        <mxCell id="KCs7AsWhaccvv9OLQSEz-30" value="V" style="rounded=0;whiteSpace=wrap;html=1;fontStyle=1;fontSize=20;fillColor=#d5e8d4;strokeColor=#82b366;" parent="1" vertex="1">
          <mxGeometry x="420" y="80" width="40" height="40" as="geometry" />
        </mxCell>
        <mxCell id="KCs7AsWhaccvv9OLQSEz-34" style="edgeStyle=orthogonalEdgeStyle;rounded=0;orthogonalLoop=1;jettySize=auto;html=1;entryX=0.5;entryY=1;entryDx=0;entryDy=0;" parent="1" source="KCs7AsWhaccvv9OLQSEz-33" target="KCs7AsWhaccvv9OLQSEz-9" edge="1">
          <mxGeometry relative="1" as="geometry" />
        </mxCell>
        <mxCell id="KCs7AsWhaccvv9OLQSEz-33" value="body" style="rounded=0;whiteSpace=wrap;html=1;fontStyle=1;fontSize=20;" parent="1" vertex="1">
          <mxGeometry x="240" y="480" width="120" height="40" as="geometry" />
        </mxCell>
        <mxCell id="KCs7AsWhaccvv9OLQSEz-37" style="edgeStyle=orthogonalEdgeStyle;rounded=0;orthogonalLoop=1;jettySize=auto;html=1;entryX=0;entryY=0.5;entryDx=0;entryDy=0;" parent="1" source="KCs7AsWhaccvv9OLQSEz-36" target="lyLFaOXSDWbJTSV2NZWl-6" edge="1">
          <mxGeometry relative="1" as="geometry">
            <Array as="points">
              <mxPoint x="-40" y="540" />
              <mxPoint x="-40" y="-20" />
            </Array>
          </mxGeometry>
        </mxCell>
        <mxCell id="KCs7AsWhaccvv9OLQSEz-36" value="env" style="rounded=0;whiteSpace=wrap;html=1;fontStyle=1;fontSize=20;" parent="1" vertex="1">
          <mxGeometry x="240" y="520" width="120" height="40" as="geometry" />
        </mxCell>
        <mxCell id="KCs7AsWhaccvv9OLQSEz-38" value="frameSize" style="rounded=0;whiteSpace=wrap;html=1;fontStyle=1;fontSize=20;" parent="1" vertex="1">
          <mxGeometry x="240" y="560" width="120" height="40" as="geometry" />
        </mxCell>
        <mxCell id="lyLFaOXSDWbJTSV2NZWl-4" style="edgeStyle=orthogonalEdgeStyle;rounded=0;orthogonalLoop=1;jettySize=auto;html=1;entryX=0;entryY=0.5;entryDx=0;entryDy=0;" edge="1" parent="1" source="KCs7AsWhaccvv9OLQSEz-39" target="lyLFaOXSDWbJTSV2NZWl-1">
          <mxGeometry relative="1" as="geometry" />
        </mxCell>
        <mxCell id="KCs7AsWhaccvv9OLQSEz-39" value="frame" style="rounded=0;whiteSpace=wrap;html=1;fontStyle=1;fontSize=20;" parent="1" vertex="1">
          <mxGeometry x="240" y="600" width="120" height="40" as="geometry" />
        </mxCell>
        <mxCell id="lyLFaOXSDWbJTSV2NZWl-5" style="edgeStyle=orthogonalEdgeStyle;rounded=0;orthogonalLoop=1;jettySize=auto;html=1;entryX=1;entryY=0.5;entryDx=0;entryDy=0;jumpStyle=gap;" edge="1" parent="1" source="KCs7AsWhaccvv9OLQSEz-40" target="lyLFaOXSDWbJTSV2NZWl-7">
          <mxGeometry relative="1" as="geometry">
            <Array as="points">
              <mxPoint x="400" y="660" />
              <mxPoint x="400" y="460" />
            </Array>
          </mxGeometry>
        </mxCell>
        <mxCell id="KCs7AsWhaccvv9OLQSEz-40" value="next" style="rounded=0;whiteSpace=wrap;html=1;fontStyle=1;fontSize=20;" parent="1" vertex="1">
          <mxGeometry x="240" y="640" width="120" height="40" as="geometry" />
        </mxCell>
        <mxCell id="lyLFaOXSDWbJTSV2NZWl-32" style="edgeStyle=orthogonalEdgeStyle;rounded=0;orthogonalLoop=1;jettySize=auto;html=1;entryX=0;entryY=0.5;entryDx=0;entryDy=0;" edge="1" parent="1" source="lyLFaOXSDWbJTSV2NZWl-1" target="lyLFaOXSDWbJTSV2NZWl-10">
          <mxGeometry relative="1" as="geometry">
            <Array as="points">
              <mxPoint x="460" y="380" />
            </Array>
          </mxGeometry>
        </mxCell>
        <mxCell id="lyLFaOXSDWbJTSV2NZWl-1" value="V" style="rounded=0;whiteSpace=wrap;html=1;fontStyle=1;fontSize=20;fillColor=#d5e8d4;strokeColor=#82b366;" vertex="1" parent="1">
          <mxGeometry x="440" y="600" width="40" height="40" as="geometry" />
        </mxCell>
        <mxCell id="lyLFaOXSDWbJTSV2NZWl-33" style="edgeStyle=orthogonalEdgeStyle;rounded=0;orthogonalLoop=1;jettySize=auto;html=1;entryX=1;entryY=0.5;entryDx=0;entryDy=0;jumpStyle=gap;" edge="1" parent="1" source="lyLFaOXSDWbJTSV2NZWl-2" target="lyLFaOXSDWbJTSV2NZWl-7">
          <mxGeometry relative="1" as="geometry">
            <Array as="points">
              <mxPoint x="500" y="460" />
            </Array>
          </mxGeometry>
        </mxCell>
        <mxCell id="lyLFaOXSDWbJTSV2NZWl-2" value="V" style="rounded=0;whiteSpace=wrap;html=1;fontStyle=1;fontSize=20;fillColor=#d5e8d4;strokeColor=#82b366;" vertex="1" parent="1">
          <mxGeometry x="480" y="600" width="40" height="40" as="geometry" />
        </mxCell>
        <mxCell id="lyLFaOXSDWbJTSV2NZWl-3" value="V" style="rounded=0;whiteSpace=wrap;html=1;fontStyle=1;fontSize=20;fillColor=#d5e8d4;strokeColor=#82b366;" vertex="1" parent="1">
          <mxGeometry x="520" y="600" width="40" height="40" as="geometry" />
        </mxCell>
        <mxCell id="lyLFaOXSDWbJTSV2NZWl-6" value="Env" style="rounded=0;whiteSpace=wrap;html=1;fontStyle=1;fontSize=20;fillColor=#dae8fc;strokeColor=#6c8ebf;" vertex="1" parent="1">
          <mxGeometry x="180" y="-40" width="80" height="40" as="geometry" />
        </mxCell>
        <mxCell id="lyLFaOXSDWbJTSV2NZWl-7" value="Kont" style="rounded=0;whiteSpace=wrap;html=1;fontStyle=1;fontSize=20;fillColor=#dae8fc;strokeColor=#6c8ebf;" vertex="1" parent="1">
          <mxGeometry x="240" y="440" width="120" height="40" as="geometry" />
        </mxCell>
        <mxCell id="lyLFaOXSDWbJTSV2NZWl-10" value="Clo" style="rounded=0;whiteSpace=wrap;html=1;fontStyle=1;fontSize=20;fillColor=#dae8fc;strokeColor=#6c8ebf;" vertex="1" parent="1">
          <mxGeometry x="520" y="360" width="120" height="40" as="geometry" />
        </mxCell>
        <mxCell id="lyLFaOXSDWbJTSV2NZWl-12" style="edgeStyle=orthogonalEdgeStyle;rounded=0;orthogonalLoop=1;jettySize=auto;html=1;entryX=0.5;entryY=0;entryDx=0;entryDy=0;jumpStyle=gap;" edge="1" parent="1" source="lyLFaOXSDWbJTSV2NZWl-11" target="KCs7AsWhaccvv9OLQSEz-11">
          <mxGeometry relative="1" as="geometry">
            <Array as="points">
              <mxPoint x="400" y="420" />
              <mxPoint x="400" y="320" />
              <mxPoint x="220" y="320" />
            </Array>
          </mxGeometry>
        </mxCell>
        <mxCell id="lyLFaOXSDWbJTSV2NZWl-11" value="control" style="rounded=0;whiteSpace=wrap;html=1;fontStyle=1;fontSize=20;" vertex="1" parent="1">
          <mxGeometry x="520" y="400" width="120" height="40" as="geometry" />
        </mxCell>
        <mxCell id="lyLFaOXSDWbJTSV2NZWl-13" value="pending" style="rounded=0;whiteSpace=wrap;html=1;fontStyle=1;fontSize=20;" vertex="1" parent="1">
          <mxGeometry x="520" y="440" width="120" height="40" as="geometry" />
        </mxCell>
        <mxCell id="lyLFaOXSDWbJTSV2NZWl-15" style="edgeStyle=orthogonalEdgeStyle;rounded=0;orthogonalLoop=1;jettySize=auto;html=1;entryX=1;entryY=0.5;entryDx=0;entryDy=0;jumpStyle=gap;" edge="1" parent="1" source="lyLFaOXSDWbJTSV2NZWl-14" target="lyLFaOXSDWbJTSV2NZWl-6">
          <mxGeometry relative="1" as="geometry">
            <Array as="points">
              <mxPoint x="760" y="500" />
              <mxPoint x="760" y="-20" />
            </Array>
          </mxGeometry>
        </mxCell>
        <mxCell id="lyLFaOXSDWbJTSV2NZWl-14" value="env" style="rounded=0;whiteSpace=wrap;html=1;fontStyle=1;fontSize=20;" vertex="1" parent="1">
          <mxGeometry x="520" y="480" width="120" height="40" as="geometry" />
        </mxCell>
        <mxCell id="lyLFaOXSDWbJTSV2NZWl-16" value="Fail" style="rounded=0;whiteSpace=wrap;html=1;fontStyle=1;fontSize=20;fillColor=#dae8fc;strokeColor=#6c8ebf;" vertex="1" parent="1">
          <mxGeometry x="800" y="320" width="120" height="40" as="geometry" />
        </mxCell>
        <mxCell id="lyLFaOXSDWbJTSV2NZWl-19" style="edgeStyle=orthogonalEdgeStyle;rounded=0;orthogonalLoop=1;jettySize=auto;html=1;entryX=0.5;entryY=0;entryDx=0;entryDy=0;jumpStyle=gap;" edge="1" parent="1" source="lyLFaOXSDWbJTSV2NZWl-18" target="KCs7AsWhaccvv9OLQSEz-9">
          <mxGeometry relative="1" as="geometry">
            <Array as="points">
              <mxPoint x="700" y="380" />
              <mxPoint x="700" y="300" />
              <mxPoint x="180" y="300" />
            </Array>
          </mxGeometry>
        </mxCell>
        <mxCell id="lyLFaOXSDWbJTSV2NZWl-18" value="control" style="rounded=0;whiteSpace=wrap;html=1;fontStyle=1;fontSize=20;" vertex="1" parent="1">
          <mxGeometry x="800" y="360" width="120" height="40" as="geometry" />
        </mxCell>
        <mxCell id="lyLFaOXSDWbJTSV2NZWl-21" style="edgeStyle=orthogonalEdgeStyle;rounded=0;orthogonalLoop=1;jettySize=auto;html=1;entryX=1;entryY=0.5;entryDx=0;entryDy=0;" edge="1" parent="1" source="lyLFaOXSDWbJTSV2NZWl-20" target="lyLFaOXSDWbJTSV2NZWl-6">
          <mxGeometry relative="1" as="geometry">
            <Array as="points">
              <mxPoint x="1000" y="420" />
              <mxPoint x="1000" y="-20" />
            </Array>
          </mxGeometry>
        </mxCell>
        <mxCell id="lyLFaOXSDWbJTSV2NZWl-20" value="env" style="rounded=0;whiteSpace=wrap;html=1;fontStyle=1;fontSize=20;" vertex="1" parent="1">
          <mxGeometry x="800" y="400" width="120" height="40" as="geometry" />
        </mxCell>
        <mxCell id="lyLFaOXSDWbJTSV2NZWl-23" style="edgeStyle=orthogonalEdgeStyle;rounded=0;orthogonalLoop=1;jettySize=auto;html=1;entryX=0;entryY=0.5;entryDx=0;entryDy=0;jumpStyle=gap;" edge="1" parent="1" source="lyLFaOXSDWbJTSV2NZWl-22" target="lyLFaOXSDWbJTSV2NZWl-7">
          <mxGeometry relative="1" as="geometry">
            <Array as="points">
              <mxPoint x="720" y="460" />
              <mxPoint x="720" y="710" />
              <mxPoint x="200" y="710" />
              <mxPoint x="200" y="460" />
            </Array>
          </mxGeometry>
        </mxCell>
        <mxCell id="lyLFaOXSDWbJTSV2NZWl-22" value="kont" style="rounded=0;whiteSpace=wrap;html=1;fontStyle=1;fontSize=20;" vertex="1" parent="1">
          <mxGeometry x="800" y="440" width="120" height="40" as="geometry" />
        </mxCell>
        <mxCell id="lyLFaOXSDWbJTSV2NZWl-24" value="frameSize" style="rounded=0;whiteSpace=wrap;html=1;fontStyle=1;fontSize=20;" vertex="1" parent="1">
          <mxGeometry x="800" y="480" width="120" height="40" as="geometry" />
        </mxCell>
        <mxCell id="lyLFaOXSDWbJTSV2NZWl-29" style="edgeStyle=orthogonalEdgeStyle;rounded=0;orthogonalLoop=1;jettySize=auto;html=1;entryX=0;entryY=0.5;entryDx=0;entryDy=0;" edge="1" parent="1" source="lyLFaOXSDWbJTSV2NZWl-25" target="lyLFaOXSDWbJTSV2NZWl-26">
          <mxGeometry relative="1" as="geometry" />
        </mxCell>
        <mxCell id="lyLFaOXSDWbJTSV2NZWl-25" value="frame" style="rounded=0;whiteSpace=wrap;html=1;fontStyle=1;fontSize=20;" vertex="1" parent="1">
          <mxGeometry x="800" y="520" width="120" height="40" as="geometry" />
        </mxCell>
        <mxCell id="lyLFaOXSDWbJTSV2NZWl-26" value="V" style="rounded=0;whiteSpace=wrap;html=1;fontStyle=1;fontSize=20;fillColor=#d5e8d4;strokeColor=#82b366;" vertex="1" parent="1">
          <mxGeometry x="1000" y="520" width="40" height="40" as="geometry" />
        </mxCell>
        <mxCell id="lyLFaOXSDWbJTSV2NZWl-27" value="V" style="rounded=0;whiteSpace=wrap;html=1;fontStyle=1;fontSize=20;fillColor=#d5e8d4;strokeColor=#82b366;" vertex="1" parent="1">
          <mxGeometry x="1040" y="520" width="40" height="40" as="geometry" />
        </mxCell>
        <mxCell id="lyLFaOXSDWbJTSV2NZWl-28" value="V" style="rounded=0;whiteSpace=wrap;html=1;fontStyle=1;fontSize=20;fillColor=#d5e8d4;strokeColor=#82b366;" vertex="1" parent="1">
          <mxGeometry x="1080" y="520" width="40" height="40" as="geometry" />
        </mxCell>
        <mxCell id="lyLFaOXSDWbJTSV2NZWl-31" style="edgeStyle=orthogonalEdgeStyle;rounded=0;orthogonalLoop=1;jettySize=auto;html=1;entryX=1;entryY=0.5;entryDx=0;entryDy=0;jumpStyle=gap;" edge="1" parent="1" source="lyLFaOXSDWbJTSV2NZWl-30" target="lyLFaOXSDWbJTSV2NZWl-16">
          <mxGeometry relative="1" as="geometry">
            <Array as="points">
              <mxPoint x="960" y="580" />
              <mxPoint x="960" y="340" />
            </Array>
          </mxGeometry>
        </mxCell>
        <mxCell id="lyLFaOXSDWbJTSV2NZWl-30" value="next" style="rounded=0;whiteSpace=wrap;html=1;fontStyle=1;fontSize=20;" vertex="1" parent="1">
          <mxGeometry x="800" y="560" width="120" height="40" as="geometry" />
        </mxCell>
        <mxCell id="KCs7AsWhaccvv9OLQSEz-25" style="edgeStyle=orthogonalEdgeStyle;rounded=0;orthogonalLoop=1;jettySize=auto;html=1;entryX=0;entryY=0.5;entryDx=0;entryDy=0;jumpStyle=gap;" parent="1" source="KCs7AsWhaccvv9OLQSEz-24" target="lyLFaOXSDWbJTSV2NZWl-6" edge="1">
          <mxGeometry relative="1" as="geometry">
            <Array as="points">
              <mxPoint x="300" y="20" />
              <mxPoint x="300" y="-80" />
              <mxPoint x="140" y="-80" />
              <mxPoint x="140" y="-20" />
            </Array>
          </mxGeometry>
        </mxCell>
      </root>
    </mxGraphModel>
  </diagram>
</mxfile>
